<?xml version="1.0" encoding="UTF-8" standalone="no"?>
<!-- Created with Inkscape (http://www.inkscape.org/) -->

<svg
   xmlns:osb="http://www.openswatchbook.org/uri/2009/osb"
   xmlns:dc="http://purl.org/dc/elements/1.1/"
   xmlns:cc="http://creativecommons.org/ns#"
   xmlns:rdf="http://www.w3.org/1999/02/22-rdf-syntax-ns#"
   xmlns:svg="http://www.w3.org/2000/svg"
   xmlns="http://www.w3.org/2000/svg"
   xmlns:xlink="http://www.w3.org/1999/xlink"
   xmlns:sodipodi="http://sodipodi.sourceforge.net/DTD/sodipodi-0.dtd"
   xmlns:inkscape="http://www.inkscape.org/namespaces/inkscape"
   id="svg2"
   version="1.1"
   inkscape:version="0.48.3.1 r9886"
   width="1167.2437"
   height="646.4234"
   sodipodi:docname="jigsaw.svg"
   inkscape:export-xdpi="270.07001"
   inkscape:export-ydpi="270.07001"
   enable-background="new">
  <title
     id="title3017">Jigsaw for Johanna</title>
  <metadata
     id="metadata8">
    <rdf:RDF>
      <cc:Work
         rdf:about="">
        <dc:format>image/svg+xml</dc:format>
        <dc:type
           rdf:resource="http://purl.org/dc/dcmitype/StillImage" />
        <dc:title>Jigsaw for Johanna</dc:title>
        <cc:license
           rdf:resource="http://creativecommons.org/licenses/by-sa/3.0/" />
        <dc:date>01.05.2013</dc:date>
        <dc:rights>
          <cc:Agent>
            <dc:title>cc-by-sa</dc:title>
          </cc:Agent>
        </dc:rights>
        <dc:publisher>
          <cc:Agent>
            <dc:title>Micha</dc:title>
          </cc:Agent>
        </dc:publisher>
      </cc:Work>
      <cc:License
         rdf:about="http://creativecommons.org/licenses/by-sa/3.0/">
        <cc:permits
           rdf:resource="http://creativecommons.org/ns#Reproduction" />
        <cc:permits
           rdf:resource="http://creativecommons.org/ns#Distribution" />
        <cc:requires
           rdf:resource="http://creativecommons.org/ns#Notice" />
        <cc:requires
           rdf:resource="http://creativecommons.org/ns#Attribution" />
        <cc:permits
           rdf:resource="http://creativecommons.org/ns#DerivativeWorks" />
        <cc:requires
           rdf:resource="http://creativecommons.org/ns#ShareAlike" />
      </cc:License>
    </rdf:RDF>
  </metadata>
  <defs
     id="defs6">
    <linearGradient
       id="linearGradient5239"
       osb:paint="solid">
      <stop
         style="stop-color:#ff0000;stop-opacity:1;"
         offset="0"
         id="stop5241" />
    </linearGradient>
    <linearGradient
       inkscape:collect="always"
       id="linearGradient3781">
      <stop
         style="stop-color:#ff0000;stop-opacity:1;"
         offset="0"
         id="stop3783" />
      <stop
         style="stop-color:#ff0000;stop-opacity:0;"
         offset="1"
         id="stop3785" />
    </linearGradient>
    <linearGradient
       id="linearGradient3860"
       osb:paint="solid">
      <stop
         style="stop-color:#000000;stop-opacity:1;"
         offset="0"
         id="stop3862" />
    </linearGradient>
    <radialGradient
       inkscape:collect="always"
       xlink:href="#linearGradient3781"
       id="radialGradient3787"
       cx="289.54548"
       cy="494.63224"
       fx="289.54548"
       fy="494.63224"
       r="288.54103"
       gradientTransform="matrix(1,0,0,0.5281091,0,233.41245)"
       gradientUnits="userSpaceOnUse" />
  </defs>
  <sodipodi:namedview
     pagecolor="#ffffff"
     bordercolor="#666666"
     borderopacity="1"
     objecttolerance="10"
     gridtolerance="10"
     guidetolerance="10"
     inkscape:pageopacity="0"
     inkscape:pageshadow="2"
     inkscape:window-width="1680"
     inkscape:window-height="1000"
     id="namedview4"
     showgrid="false"
     inkscape:zoom="0.64"
     inkscape:cx="516.91665"
     inkscape:cy="448.5268"
     inkscape:window-x="0"
     inkscape:window-y="0"
     inkscape:window-maximized="1"
     inkscape:current-layer="layer2"
     inkscape:snap-grids="true"
     showguides="true"
     inkscape:guide-bbox="true"
     fit-margin-top="0"
     fit-margin-left="0"
     fit-margin-right="0"
     fit-margin-bottom="0" />
  <g
     inkscape:groupmode="layer"
     id="layer2"
     inkscape:label="border"
     style="display:inline"
     transform="translate(-0.7717043,-0.8761027)">
    <g
       id="g3789"
       style="fill-opacity:1;fill:#000000">
      <path
         sodipodi:nodetypes="ccccccccc"
         inkscape:connector-curvature="0"
         id="path3855"
         d="M 1.5006058,67.622346 C 1.4904858,36.449046 36.456026,1.4067457 67.62923,1.4937457 c 344.58549,0.1374809 689.17166,0.1068355 1033.75737,0.00764 31.1733,-0.01012 66.2156,34.9554193 66.1286,66.1286193 -0.014,174.248625 -0.4279,352.870845 -0.02,512.736555 0.087,31.1732 -34.9553,66.13874 -66.1286,66.12862 -344.57748,0.66004 -689.16207,-0.841 -1033.736733,0.018 -31.1732,0.087 -66.1387414,-34.9553 -66.1286214,-66.1286 -0.0031,-177.43022 0.04158,-374.15746 -6.398e-4,-512.762234 z"
         style="stroke:#000000;stroke-width:1;stroke-linecap:butt;stroke-linejoin:miter;stroke-miterlimit:4;stroke-opacity:1;stroke-dasharray:none;fill-opacity:1;fill:#ffffff" />
    </g>
  </g>
  <g
     inkscape:groupmode="layer"
     id="layer3"
     inkscape:label="pieces"
     style="display:inline"
     transform="translate(-0.7717043,-0.8761027)">
    <path
       style="fill:none;stroke:#000000;stroke-width:1;stroke-miterlimit:4;stroke-opacity:1;stroke-dasharray:none;marker-start:none"
       d="m 623.24275,404.28423 c 0,10.54051 -1.06809,20.83154 -3.10196,30.77078 -2.03387,9.93925 -5.03348,19.52669 -8.89656,28.66002 -3.86307,9.13331 -8.58958,17.81251 -14.0772,25.93526 -5.48762,8.12275 -11.73635,15.68903 -18.64386,22.59654 -6.90751,6.90752 -14.4738,13.15624 -22.59655,18.64386 -8.12274,5.48762 -16.80194,10.21413 -25.93526,14.0772 -9.13332,3.86307 -18.72077,6.86269 -28.66002,8.89657 -9.93924,2.03386 -20.23027,3.10195 -30.77078,3.10195 -10.5405,0 -20.92917,-0.63869 -30.77079,-3.10195 -41.42534,-10.36842 3.02658,31.08553 -31.43819,23.51558 -53.13284,-11.67025 34.97299,-9.51564 -23.15708,-46.48935 -8.27133,-5.26099 -15.68904,-11.73634 -22.59655,-18.64386 -6.9075,-6.90751 -13.15623,-14.47379 -18.64385,-22.59654 -5.48763,-8.12275 -10.21414,-16.80195 -14.07721,-25.93526 -3.86307,-9.13333 -6.86269,-18.72077 -8.89655,-28.66002 -2.03388,-9.93924 -3.10197,-20.23027 -3.10197,-30.77078 0,-10.54052 1.06809,-20.83155 3.10197,-30.77079 2.03386,-9.93923 5.03348,-19.52668 8.89655,-28.66001 3.86307,-9.13332 8.58958,-17.81252 14.07721,-25.93526 5.48762,-8.12274 11.73635,-15.68904 18.64385,-22.59655 6.90751,-6.9075 14.47381,-13.15624 22.59655,-18.64385 8.12274,-5.48763 16.80194,-10.21414 25.93527,-14.07721 9.13332,-3.86307 18.72077,-6.86269 28.66,-8.89655 9.93924,-2.03388 20.23029,-3.10197 30.77079,-3.10197 10.54051,0 20.83154,1.06809 30.77078,3.10197 9.93925,2.03386 19.5267,5.03348 28.66002,8.89655 9.13332,3.86307 17.69729,8.76412 25.93526,14.07721 32.20036,20.76763 15.96566,-42.83108 46.90567,-8.67497 30.62217,33.80523 -46.34322,3.82409 -5.66526,49.91537 6.4865,7.3497 10.21413,16.80194 14.0772,25.93526 3.86308,9.13333 6.86269,18.72078 8.89656,28.66001 2.03387,9.93924 3.10196,20.23029 3.10196,30.77079 z"
       id="path3858"
       inkscape:connector-curvature="0"
       sodipodi:nodetypes="sssssssssssssssssssssssssssssssss" />
    <path
       style="fill:none;stroke:#000000;stroke-width:1;stroke-linecap:butt;stroke-linejoin:miter;stroke-miterlimit:4;stroke-opacity:1;stroke-dasharray:none"
       d="m 602.63542,1.4061305 c 0,0 -9.0583,15.3006975 -0.34997,27.7889485 8.03766,11.526459 23.49061,-4.40455 22.53488,24.3016 -1.34524,40.405552 -19.70333,-5.95026 -29.6453,10.034162 -5.37396,8.640098 -1.95578,29.281552 -15.14718,64.162189 -13.1914,34.88064 -30.26957,-27.982552 -45.08974,10.10899 -12.10942,31.12423 23.76282,4.40206 20.02696,28.17552 -1.5364,9.777 -54.98749,147.41344 -63.21862,150.96997 -10.02467,4.33148 -37.73969,-35.42754 -26.67488,10.80419 5.03483,21.03685 25.35315,3.82975 27.57411,12.1262 11.23015,41.95051 -4.99305,104.11974 -14.254,128.94312 -5.94712,15.94087 -24.31881,-14.31687 -16.03815,20.56267 8.51976,35.88667 16.04863,-4.14247 24.2627,-4.96556 9.44936,-0.94688 60.20455,25.44724 80.50512,38.69327"
       id="path6359"
       inkscape:connector-curvature="0"
       sodipodi:nodetypes="cssssssssssssc" />
    <path
       style="fill:none;stroke:#000000;stroke-width:1;stroke-linecap:butt;stroke-linejoin:miter;stroke-miterlimit:4;stroke-opacity:1;stroke-dasharray:none"
       d="m 518.70854,549.0785 c 1.38909,14.81699 8.46189,19.83041 15.2784,24.286 14.70109,9.6093 35.18772,-5.08097 30.63052,31.99347 -4.31121,35.07322 -22.55814,-10.99638 -33.44815,6.01995 -7.18853,11.23255 -8.52804,35.02584 -8.52804,35.02584"
       id="path6330"
       inkscape:connector-curvature="0"
       sodipodi:nodetypes="csssc" />
    <path
       style="fill:none;stroke:#000000;stroke-width:1;stroke-linecap:round;stroke-linejoin:miter;stroke-miterlimit:4;stroke-opacity:1;stroke-dasharray:none"
       d="m 1.2717043,110.06907 c 0,0 35.2660807,-14.740191 50.8681737,-7.63023 10.058788,4.58385 -9.768242,32.6677 17.803861,27.9775 35.873661,-6.10236 4.224709,-25.57055 13.988747,-31.792614 49.702244,-31.672418 129.199994,38.612294 176.766904,3.815114 12.12506,-8.869987 -33.74137,-43.237952 12.71704,-43.237952 48.40013,0 11.22175,33.604689 25.43409,41.330392 58.30382,31.69345 145.1907,34.15417 199.02948,-4.642682 9.90737,-7.139367 -5.56269,-34.934888 12.39912,-34.473189 69.96239,1.798347 20.99523,24.439713 17.48594,32.565632 -12.73357,29.485069 82.23979,-9.07242 112.856,13.226689 6.22067,4.53078 -12.3543,24.95091 9.59233,21.00023 30.36738,-5.46651 4.59418,-14.62964 10.75494,-17.82097 49.53595,-25.660108 153.91091,-2.17492 166.93019,12.02385 13.01929,14.19877 -30.06295,44.16674 19.63816,54.53515 49.7011,10.36841 7.95107,-33.26071 22.81741,-45.54285 14.86635,-12.28213 53.02189,3.86766 75.79393,-7.34533 12.64903,-6.2284 -11.91715,-46.145568 28.90322,-30.88241 31.55066,11.7971 -6.26673,32.07727 3.67501,42.01919 22.77435,22.77478 76.77545,30.74945 119.23095,30.08521 23.7052,-0.37088 -25.2311,-48.05159 21.7607,-32.10102 44.472,15.09529 -18.9615,40.78799 15.4052,49.47838 14.178,3.58522 32.2451,-30.95677 32.2451,-30.95677"
       id="path6332"
       inkscape:connector-curvature="0"
       sodipodi:nodetypes="casaasaassasazzzasssssc" />
    <path
       sodipodi:nodetypes="casaassasazzzsssac"
       inkscape:connector-curvature="0"
       id="path6336"
       d="m 1015.5539,1.3761027 c 4.9443,21.4933443 -9.1518,55.8060323 7.9708,73.5548543 7.7636,8.047553 28.0814,-30.994753 33.1995,4.80908 5.3319,37.300263 -23.2719,12.886577 -27.5938,24.372423 -13.3165,35.39032 -11.3714,84.87247 14.4274,112.51713 8.3318,8.92791 33.7253,-10.67667 35.9296,7.15535 8.586,69.45684 -21.0597,24.38414 -29.6158,22.11736 -31.0462,-8.22506 5.0912,63.83944 -10.7497,89.29097 -4.0665,6.53363 -26.5058,-8.52168 -19.3475,12.59752 9.9049,29.22248 14.765,2.67514 19.2176,7.99622 19.8656,23.74038 32.1118,75.70878 19.9984,90.68786 -12.1134,14.97908 -32.846,-22.28902 -35.7371,21.20585 -2.8911,43.49486 25.959,15.67201 33.1335,22.11341 7.1745,6.4414 -0.8972,29.26745 -7.2969,47.19484 -6.3997,17.92738 -11.1274,30.95611 -5.1228,45.30551 3.6394,8.69713 28.48,-13.18318 22.6066,16.99727 -4.5397,23.32685 -19.3448,1.39493 -26.6234,6.97983 -12.2002,9.36127 -22.8519,40.0762 -22.8519,40.0762"
       style="fill:none;stroke:#000000;stroke-width:1;stroke-linecap:butt;stroke-linejoin:miter;stroke-miterlimit:4;stroke-opacity:1;stroke-dasharray:none" />
    <path
       style="fill:none;stroke:#000000;stroke-width:1;stroke-miterlimit:4;stroke-opacity:1;stroke-dasharray:none"
       d="m 871.51812,1.6221893 c 0.23844,11.3393597 -8.84931,39.6797507 1.77844,43.6406877 19.88319,7.410414 24.05064,-41.9576327 39.291,3.809907 9.1425,27.455387 -33.55471,6.274043 -39.20969,24.161648 -3.41883,10.81432 49.95579,112.593558 46.30508,123.331818 -7.63308,22.4521 -37.60317,-25.74982 -34.32494,19.32626 3.48943,47.98001 38.13646,8.76288 49.95067,10.84162 11.17028,1.96545 -27.18125,103.77545 -34.10817,107.31673 -7.09669,3.62807 -21.64936,-26.62388 -22.34084,5.26894 -0.5457,25.16897 17.40677,0.41469 24.02094,5.30639 6.45061,4.77074 13.24505,110.25576 4.808,117.83563 -6.82625,6.13271 -36.71069,-41.8241 -51.5594,-41.01809 -16.47534,0.8943 -32.74863,49.65788 -17.0175,68.68536 7.22691,8.74127 57.63076,-4.39693 57.86921,6.94243 0.23844,11.33936 -3.34521,24.16249 -12.01801,31.47142 -20.59795,17.35876 -32.25807,71.17976 -12.84413,77.74983 21.31354,7.21294 15.0247,-29.7193 33.00703,-22.15674 19.2128,8.08004 12.18112,35.05147 -3.61954,62.34383"
       id="path6344"
       inkscape:connector-curvature="0"
       sodipodi:nodetypes="cssssssssssssssssc" />
    <path
       style="fill:none;stroke:#000000;stroke-width:1;stroke-miterlimit:4;stroke-opacity:1;stroke-dasharray:none"
       d="m 1167.4235,494.60536 c 0,0 -33.0101,-10.93824 -40.9494,0.16525 -9.7409,13.62315 27.6363,35.50903 16.0561,47.60761 -8.3853,8.76064 -22.9586,-8.29014 -34.9487,-10.10641 -44.9373,-6.80715 -99.4675,23.97935 -136.32486,-2.61456 -11.25764,-8.12279 42.39446,-44.12863 -13.88482,-39.26371 -25.44467,2.19949 -4.95914,31.86921 -17.12603,39.45152 -26.62606,16.59315 -67.12459,14.89687 -94.01733,-4.38852 -42.88685,-30.75513 9.42732,30.36976 -31.22334,33.93184 -39.95596,3.50121 6.40767,-57.27125 -23.28667,-37.57915 -27.67411,18.35236 -62.69149,-15.16709 -94.53331,2.63646 -15.57832,8.71022 16.61344,81.33404 -51.07631,28.36497 -14.04127,-10.98768 27.79454,-25.96746 15.71579,-39.08196 -10.23781,-11.11569 -62.349,-27.60447 -62.349,-27.60447"
       id="path6346"
       inkscape:connector-curvature="0"
       sodipodi:nodetypes="caaaasassssssc" />
    <path
       id="path6348"
       style="fill:none;stroke:#000000;stroke-width:1;stroke-miterlimit:4;stroke-opacity:1;stroke-dasharray:none"
       d="m 1.4125681,372.43936 c 0,0 24.6975009,-9.08962 40.0603999,-7.08411 32.097883,4.19015 -22.954225,-36.33695 29.242331,-27.19273 32.722951,5.73267 4.001621,46.1569 23.876137,47.65107 19.874524,1.49417 91.169254,2.20292 100.060734,2.36735 30.91017,0.57161 16.9917,35.80842 51.34703,26.37287 41.12874,-11.29584 -50.91826,-42.23761 -7.07155,-46.80915 43.67133,-4.55326 133.37243,20.87491 155.96303,46.01152 10.50173,11.68529 -17.35879,33.8703 16.57074,29.75175 33.92952,-4.11855 -4.37107,-25.58021 3.42278,-31.84554 45.2692,-30.66106 126.75128,29.17613 142.15665,2.74064 4.82821,-9.29927 -26.23346,-18.61115 -4.13343,-31.16096 24.46702,-13.89395 16.48995,21.23102 28.12212,20.71893 9.83705,-0.43306 72.20064,-63.90159 89.01631,-61.06894 16.40118,2.76284 -13.76698,18.61666 17.37036,24.40488 31.13734,5.78823 -15.89742,-31.23037 23.08548,-22.89222 38.98289,8.33815 58.09145,15.60901 88.01733,19.40487 9.8159,1.24507 20.02327,-5.8406 16.37342,12.47341 -4.65613,23.36328 8.79619,1.29098 19.89018,2.96612 11.09398,1.67514 75.43848,20.71108 128.96739,16.29341 19.04389,-1.57167 -36.13624,-43.77071 25.10052,-22.38394 10.23199,3.57349 1.29411,30.19157 13.23477,31.1737 10.9288,0.8989 121.8969,17.65352 122.5808,16.47051 4.0448,-6.99654 -10.6773,-23.93903 16.8109,-20.46122 21.0571,2.66413 -19.6726,38.88978 1.2946,42.85142 6.7812,1.28127 24.5678,-10.35663 24.5678,-10.35663"
       inkscape:connector-curvature="0"
       sodipodi:nodetypes="cssssssssccssssssssssssssc" />
    <path
       style="fill:none;stroke:#000000;stroke-width:1;stroke-linecap:butt;stroke-linejoin:miter;stroke-miterlimit:4;stroke-opacity:1;stroke-dasharray:none"
       d="m 781.23031,646.42014 c -5.66486,-21.31477 6.7176,-59.81518 -12.3196,-77.98744 -8.08848,-7.72099 -27.02237,31.92227 -33.34254,-3.68904 -6.58421,-37.09969 21.33992,-14.27597 26.75792,-25.28728 7.84448,-15.9428 16.1703,-38.92644 5.36772,-53.03364 -7.4244,-9.69559 -33.34688,11.80564 -36.15006,-5.9421 -10.91869,-69.12853 20.22712,-25.07908 28.85467,-23.10154 31.30542,7.17555 -30.19988,-89.53439 -12.13089,-128.62605 3.2289,-6.98563 26.77758,7.62481 18.91257,-13.24152 -10.88277,-28.87258 -14.99814,-2.04493 -19.47582,-7.34492 -23.53115,-27.8526 -32.56476,-91.98057 -20.96234,-107.35884 11.60242,-15.37827 33.57753,21.17097 35.00318,-22.39656 1.42565,-43.56752 -19.08461,-8.59319 -33.85895,-20.98578 -14.77444,-12.39259 38.72588,-60.72809 28.52217,-90.750556 -3.03382,-8.926422 -28.02019,14.1342 -23.16583,-16.226821 3.75207,-23.466418 21.73259,0.04216 26.37341,-7.871881 7.08674,-12.085084 -9.17247,-41.0159211 -9.17247,-41.0159211"
       id="path6352"
       inkscape:connector-curvature="0"
       sodipodi:nodetypes="casaassasazzzasac" />
    <path
       sodipodi:nodetypes="casaasaassssscczzzasac"
       inkscape:connector-curvature="0"
       id="path6354"
       d="m 1167.0849,299.31334 c 0,0 -13.8562,0.9504 -19.2107,4.81143 -8.9661,6.46531 9.7683,32.6677 -17.8038,27.9775 -35.8737,-6.10236 -4.1855,-25.63263 -13.9888,-31.79262 -31.4273,-19.74757 -81.1895,25.53913 -111.2845,3.81512 -12.18108,-8.79288 33.7414,-43.23796 -12.71699,-43.23796 -48.40016,0 -10.64936,34.76624 -25.43412,41.3304 -35.09045,15.57951 -83.99403,3.85228 -113.24747,-21.0133 -9.30458,-7.90894 5.56269,-34.93488 -12.39912,-34.47318 -69.96239,1.79834 -21.47881,24.66609 -17.48594,32.56563 28.98641,57.34708 -111.57836,-82.00532 -152.14547,-62.73294 -6.95121,3.30233 12.3543,24.95091 -9.59233,21.00023 -30.36738,-5.46651 -4.72141,-14.39516 -10.75494,-17.82097 -50.10375,-28.44865 -83.47106,-19.83372 -108.59466,-18.20239 m -181.16663,96.42682 c -24.12984,-61.05677 -63.9581,-45.82318 -73.43026,-44.07535 -9.47216,1.74784 -2.5956,53.36427 -48.51851,31.71269 -45.9229,-21.65157 13.68132,-31.34192 9.2088,-50.09973 -4.47253,-18.75782 -103.517,6.28242 -147.88233,-15.84254 -12.61738,-6.29228 11.91715,-46.14557 -28.903221,-30.88241 -31.5507,11.7971 6.784425,32.62345 -3.67501,42.01919 -16.498957,14.82107 -66.5220299,-1.31759 -66.5220299,-1.31759"
       style="fill:none;stroke:#000000;stroke-width:1;stroke-linecap:butt;stroke-linejoin:miter;stroke-miterlimit:4;stroke-opacity:1;stroke-dasharray:none" />
    <path
       sodipodi:nodetypes="casac"
       inkscape:connector-curvature="0"
       id="path6361"
       d="m 288.98271,646.79951 c -1.30946,-45.78041 45.42145,-39.07377 43.08046,-64.9467 -0.84957,-9.38953 -30.21611,8.47902 -19.61096,-20.38077 8.19693,-22.30608 21.02061,3.94745 27.39522,-2.65055 16.23698,-16.80599 4.34474,-69.97035 4.34474,-69.97035"
       style="fill:none;stroke:#000000;stroke-width:1;stroke-linecap:butt;stroke-linejoin:miter;stroke-miterlimit:4;stroke-opacity:1;stroke-dasharray:none" />
    <path
       style="fill:none;stroke:#000000;stroke-width:1;stroke-linecap:butt;stroke-linejoin:miter;stroke-miterlimit:4;stroke-opacity:1;stroke-dasharray:none"
       d="m 342.40816,489.13509 c -26.68504,-5.07653 -60.98261,38.53224 -87.38505,23.87869 -13.1537,-7.30041 34.32054,-43.23796 -12.93527,-43.23796 -49.2309,0 -11.67486,33.41554 -25.87067,41.3304 -30.30223,16.89497 -75.64121,20.4681 -104.07993,0.5959 -10.01001,-6.99472 5.54674,-35.35964 -12.399118,-34.47318 -49.662832,2.45316 -7.422462,44.87565 -17.48594,61.37791 -24.748808,40.58349 -31.597453,-62.36059 -80.6772804,-58.804"
       id="path6363"
       inkscape:connector-curvature="0"
       sodipodi:nodetypes="casaassc" />
    <path
       style="fill:none;stroke:#000000;stroke-width:1;stroke-linecap:butt;stroke-linejoin:miter;stroke-miterlimit:4;stroke-opacity:1;stroke-dasharray:none"
       d="m 162.68587,646.57409 c 0,0 23.41477,-34.24265 15.05048,-50.86506 -4.9687,-9.87434 -29.90354,16.3822 -31.08144,-11.5611 -1.53254,-36.3568 24.36107,-9.3914 28.16543,-20.3265 10.77739,-30.9783 -39.56367,-64.4502 -26.8202,-94.6729 5.83688,-13.8429 49.33669,23.956 39.62373,-21.4757 -10.11893,-47.3306 -36.10623,-3.23221 -45.73451,-16.2312 -14.48404,-19.55468 -14.6452,-51.39871 -3.30415,-72.929 5.69123,-10.80446 34.8955,14.35814 31.1191,-19.3323 -5.00599,-44.65995 -26.89199,-8.23718 -35.50171,-10.2911 -25.01598,-5.96778 55.01349,-121.62702 27.68572,-157.2684 -4.68262,-6.10719 -21.81663,17.29772 -22.54159,-4.98987 -1.00315,-30.83918 12.9749,-7.66408 15.17863,-14.24308 5.35314,-15.98125 -10.4216,-43.66548 -10.29675,-59.614287 0.30334,-38.749672 37.55679,-5.275322 48.93542,-13.323982 12.75485,-9.022135 10.73783,-49.230925 1.92889,-54.752695 -13.27981,-8.324275 -75.98928,25.963086 -37.74286,-23.1458039"
       id="path6369"
       inkscape:connector-curvature="0"
       sodipodi:nodetypes="csssssssssssssssc" />
    <path
       style="fill:none;stroke:#000000;stroke-width:1;stroke-linecap:butt;stroke-linejoin:miter;stroke-miterlimit:4;stroke-opacity:1;stroke-dasharray:none"
       d="m 427.96489,257.36446 c 0,0 -4.35127,-52.03092 -21.2748,-53.94925 -9.57078,-1.08487 -36.35486,38.81111 -41.93696,-11.65218 -5.5821,-50.4633 39.76073,-4.74339 53.40443,-18.37089 13.64369,-13.62749 -48.33499,-57.6986 -21.09248,-104.476289 7.09561,-12.18375 44.79901,16.26288 33.49766,-25.82686 -8.73495,-32.53182 -33.13623,3.65355 -41.47732,-7.66485 -13.21061,-17.92602 -8.80387,-33.9244514 -8.80387,-33.9244514"
       id="path6365"
       inkscape:connector-curvature="0"
       sodipodi:nodetypes="cssssssc" />
  </g>
</svg>
